<?xml version="1.0" ?>
<!-- Uploaded to: SVG Repo, www.svgrepo.com, Generator: SVG Repo Mixer Tools -->
<svg fill="#000000" width="800px" height="800px" viewBox="0 0 96 96" xmlns="http://www.w3.org/2000/svg">
<title/>
<g id="Report">
<path d="M48,67.5A2.5,2.5,0,1,0,50.5,70,2.5,2.5,0,0,0,48,67.5Zm0,4A1.5,1.5,0,1,1,49.5,70,1.5,1.5,0,0,1,48,71.5Z"/>
<path d="M79.93,75.67h0L50.74,18.27a.35.35,0,0,0-.05-.08,3,3,0,0,0-5.49.23L16.08,75.65A2.9,2.9,0,0,0,16,78.06,3.14,3.14,0,0,0,18.91,80H77.09a3.15,3.15,0,0,0,3-1.93A3,3,0,0,0,79.93,75.67Zm-.83,2a2.12,2.12,0,0,1-2,1.29H18.91a2.11,2.11,0,0,1-2-1.3A1.93,1.93,0,0,1,17,76.09L46.1,18.87a2,2,0,0,1,3.76-.12.05.05,0,0,1,0,0L79,76.11A1.94,1.94,0,0,1,79.1,77.71Z"/>
<path d="M48,34.5A4.52,4.52,0,0,0,43.5,39l2,24a2.5,2.5,0,0,0,5,0l2-24A4.51,4.51,0,0,0,48,34.5ZM49.5,63a1.5,1.5,0,1,1-3,0l-2-24a3.5,3.5,0,0,1,7,0Z"/>
</g>
</svg>