<?xml version="1.0" ?>
<!-- Uploaded to: SVG Repo, www.svgrepo.com, Generator: SVG Repo Mixer Tools -->
<svg fill="#000000" width="800px" height="800px" viewBox="0 0 96 96" xmlns="http://www.w3.org/2000/svg">
<title/>
<g id="Privacy">
<path d="M72.61,21.28l-24.5-5.77h-.22l-24.5,5.77a.49.49,0,0,0-.39.48V48A29.33,29.33,0,0,0,38.06,73.66l9.67,6.17a.45.45,0,0,0,.27.08.53.53,0,0,0,.24-.06l10.95-5.94,0,0A29.15,29.15,0,0,0,73,49V21.76A.49.49,0,0,0,72.61,21.28ZM72,49A28.18,28.18,0,0,1,58.7,73L48,78.83l-9.45-6A28.33,28.33,0,0,1,24,48V22.16l24-5.65,24,5.65Z"/>
<path d="M27.17,46.9a.5.5,0,0,0,.5-.5v-2a.5.5,0,0,0-.5-.5.51.51,0,0,0-.5.5v2A.5.5,0,0,0,27.17,46.9Z"/>
<path d="M27.17,42.9a.5.5,0,0,0,.5-.5v-2a.5.5,0,0,0-.5-.5.51.51,0,0,0-.5.5v2A.5.5,0,0,0,27.17,42.9Z"/>
<path d="M27.17,38.9a.5.5,0,0,0,.5-.5v-2a.5.5,0,0,0-.5-.5.51.51,0,0,0-.5.5v2A.5.5,0,0,0,27.17,38.9Z"/>
<path d="M27.34,50.9a.5.5,0,0,0,.45-.55c-.06-.65-.1-1.3-.11-2a.49.49,0,0,0-.51-.5.5.5,0,0,0-.49.51q0,1,.12,2a.49.49,0,0,0,.49.45Z"/>
<path d="M67.27,57.44a.5.5,0,0,0-.65.28c-.24.6-.51,1.2-.8,1.78a.5.5,0,0,0,.22.67.49.49,0,0,0,.23.06.48.48,0,0,0,.44-.28q.47-.91.84-1.86A.51.51,0,0,0,67.27,57.44Z"/>
<path d="M42,22.66h.12l1.94-.46a.5.5,0,1,0-.23-1l-1.94.46a.5.5,0,0,0,.11,1Z"/>
<path d="M28.49,54.2c-.17-.63-.31-1.27-.43-1.91a.5.5,0,0,0-1,.18c.12.66.27,1.33.45,2a.49.49,0,0,0,.48.37l.13,0A.5.5,0,0,0,28.49,54.2Z"/>
<path d="M29.81,57.88c-.27-.59-.52-1.2-.74-1.81a.49.49,0,0,0-.63-.3.51.51,0,0,0-.31.64c.23.63.49,1.27.77,1.89a.49.49,0,0,0,.45.29.41.41,0,0,0,.21-.05A.5.5,0,0,0,29.81,57.88Z"/>
<path d="M27.17,34.9a.5.5,0,0,0,.5-.5v-2a.5.5,0,0,0-.5-.5.51.51,0,0,0-.5.5v2A.5.5,0,0,0,27.17,34.9Z"/>
<path d="M34.23,24.5l.12,0L36.3,24a.5.5,0,0,0,.37-.6.5.5,0,0,0-.6-.37l-2,.46a.49.49,0,0,0-.37.6A.5.5,0,0,0,34.23,24.5Z"/>
<path d="M38.13,23.58h.11l1.95-.46a.5.5,0,0,0,.37-.6.5.5,0,0,0-.6-.38l-2,.46a.5.5,0,0,0,.12,1Z"/>
<path d="M68.83,28.62a.5.5,0,0,0,.5-.5v-2a.5.5,0,0,0-.5-.5.5.5,0,0,0-.5.5v2A.5.5,0,0,0,68.83,28.62Z"/>
<path d="M30.34,25.41h.12l1.94-.46a.5.5,0,1,0-.23-1l-1.94.45a.52.52,0,0,0-.38.61A.5.5,0,0,0,30.34,25.41Z"/>
<path d="M27.17,30.9a.5.5,0,0,0,.5-.5v-2a.5.5,0,0,0-.5-.5.51.51,0,0,0-.5.5v2A.5.5,0,0,0,27.17,30.9Z"/>
<path d="M27.17,26.9a.5.5,0,0,0,.5-.5v-.35l.84-.19a.51.51,0,0,0,.37-.61.5.5,0,0,0-.6-.37l-1.22.29a.49.49,0,0,0-.39.49v.74A.5.5,0,0,0,27.17,26.9Z"/>
<path d="M57.48,23.5l2,.46h.11a.5.5,0,0,0,.12-1l-1.95-.46a.49.49,0,0,0-.6.37A.5.5,0,0,0,57.48,23.5Z"/>
<path d="M61.37,24.42l2,.46h.12a.5.5,0,0,0,.48-.39.49.49,0,0,0-.37-.6l-1.95-.46a.51.51,0,0,0-.6.38A.51.51,0,0,0,61.37,24.42Z"/>
<path d="M65.27,25.33l2,.46h.11a.5.5,0,0,0,.11-1l-1.94-.46a.5.5,0,0,0-.23,1Z"/>
<path d="M53.59,22.58l1.94.46.12,0a.51.51,0,0,0,.49-.39.5.5,0,0,0-.38-.6l-1.94-.46a.5.5,0,0,0-.23,1Z"/>
<path d="M49.69,21.67l2,.46h.12a.5.5,0,0,0,.11-1l-1.95-.45a.49.49,0,0,0-.6.37A.5.5,0,0,0,49.69,21.67Z"/>
<path d="M47.75,20.3l-2,.46a.5.5,0,0,0,.11,1l.12,0L48,21.27a.5.5,0,1,0-.23-1Z"/>
<path d="M68.54,52.61h.06a.5.5,0,0,0,.5-.43c.09-.67.15-1.36.19-2a.51.51,0,0,0-.47-.53.49.49,0,0,0-.53.47c0,.65-.09,1.31-.18,2A.5.5,0,0,0,68.54,52.61Z"/>
<path d="M68.83,40.62a.5.5,0,0,0,.5-.5v-2a.5.5,0,0,0-.5-.5.5.5,0,0,0-.5.5v2A.5.5,0,0,0,68.83,40.62Z"/>
<path d="M68.83,44.62a.5.5,0,0,0,.5-.5v-2a.5.5,0,0,0-.5-.5.5.5,0,0,0-.5.5v2A.5.5,0,0,0,68.83,44.62Z"/>
<path d="M68.83,36.62a.5.5,0,0,0,.5-.5v-2a.5.5,0,0,0-.5-.5.5.5,0,0,0-.5.5v2A.5.5,0,0,0,68.83,36.62Z"/>
<path d="M67.27,55.87a.5.5,0,0,0,.33.62.39.39,0,0,0,.15,0,.5.5,0,0,0,.48-.35c.19-.65.37-1.31.51-2a.5.5,0,1,0-1-.22C67.63,54.61,67.46,55.25,67.27,55.87Z"/>
<path d="M68.83,48.62a.5.5,0,0,0,.5-.5v-2a.5.5,0,0,0-.5-.5.5.5,0,0,0-.5.5v2A.5.5,0,0,0,68.83,48.62Z"/>
<path d="M68.83,32.62a.5.5,0,0,0,.5-.5v-2a.5.5,0,0,0-.5-.5.5.5,0,0,0-.5.5v2A.5.5,0,0,0,68.83,32.62Z"/>
<path d="M37,40.5a11.53,11.53,0,0,0,7.6,10.81,20.08,20.08,0,0,0-13.49,9c-.14-.23-.29-.46-.42-.7a.5.5,0,0,0-.88.49c.27.49.57,1,.88,1.43h0c.07.1.12.2.19.3l.06.06c.34.51.7,1,1.08,1.48a.39.39,0,0,0,.06.11c.1.14.23.26.34.4s.25.29.37.43.4.49.62.72l.05,0c.43.47.89.91,1.35,1.34l0,.06c.15.14.32.27.48.41s.48.41.73.6.23.21.35.3l0,0c.52.4,1.05.78,1.6,1.14,0,0,0,0,0,0l.06,0c.45.28.9.55,1.36.81l3.3,2.11.36.23h0l4.56,2.91a.5.5,0,0,0,.51,0l2.25-1.23h0l1.75-1h0L54,72h0l1.76-1h0l1.76-1h0c.43-.27.85-.56,1.26-.85,0,0,0,0,0,0l.26-.2c.37-.27.72-.54,1.07-.83l.28-.22,0-.06c.48-.41,1-.84,1.4-1.28l.06,0c.17-.17.32-.35.49-.53s.43-.45.63-.68.18-.19.26-.29a.56.56,0,0,0,0-.08c.4-.48.79-1,1.15-1.47,0,0,0,0,.06-.05s.1-.16.16-.24c.28-.4.55-.81.81-1.22h0l.15-.23a.49.49,0,0,0-.17-.69A.48.48,0,0,0,65.3,61a20,20,0,0,0-13.22-9.57A11.5,11.5,0,1,0,37,40.5ZM64.57,61.69l-.39.58a23.82,23.82,0,0,1-1.89,2.45l-.64.69a23.87,23.87,0,0,1-2.08,1.94c-.36.3-.74.59-1.12.87s-.91.65-1.38.94l-4.59,2.49L51.8,72h0l-3.78,2-.93-.6h0L45.4,72.4h0l-1.68-1.07h0L42,70.25h0l-1.68-1.07h0L40,69q-.66-.37-1.29-.78a20.5,20.5,0,0,1-2-1.45L36,66.18a25.88,25.88,0,0,1-2.41-2.39l-.35-.41a25.19,25.19,0,0,1-1.58-2.11,19,19,0,0,1,32.87.42ZM48.5,30A10.5,10.5,0,1,1,38,40.5,10.51,10.51,0,0,1,48.5,30Z"/>
</g>
</svg>