<?xml version="1.0" ?>
<!-- Uploaded to: SVG Repo, www.svgrepo.com, Generator: SVG Repo Mixer Tools -->
<svg fill="#000000" width="800px" height="800px" viewBox="0 0 96 96" xmlns="http://www.w3.org/2000/svg">
<title/>
<g data-name="Basket Bag" id="Basket_Bag">
<path d="M75.13,48H56v-.5a4.49,4.49,0,0,0-3-4.22V21.5a4.5,4.5,0,0,0-9,0V43.28a4.49,4.49,0,0,0-3,4.22V48H21.87a3.11,3.11,0,0,0-3.16,2.73,3,3,0,0,0,3,3.27h1.24l6.58,22A5.66,5.66,0,0,0,35,80H58.79a5.66,5.66,0,0,0,5.28-3.57L73,54h2.27a3,3,0,0,0,3-3.27A3.11,3.11,0,0,0,75.13,48ZM45,43V21.5a3.5,3.5,0,0,1,7,0V43H45Zm-3,4.5A3.5,3.5,0,0,1,45.5,44h6A3.5,3.5,0,0,1,55,47.5v2A3.5,3.5,0,0,1,51.5,53h-6A3.5,3.5,0,0,1,42,49.5v-2ZM20.22,52.35a2,2,0,0,1-.52-1.53A2.11,2.11,0,0,1,21.87,49H41v.5a4.58,4.58,0,0,0,.08.83.5.5,0,0,1,0,.12,5.65,5.65,0,0,0,.23.73l.06.13a4.32,4.32,0,0,0,.36.67l.07.09a4.16,4.16,0,0,0,.5.61h0l.34.31h-21A2,2,0,0,1,20.22,52.35Zm42.92,23.7a4.67,4.67,0,0,1-4.35,3H35a4.65,4.65,0,0,1-4.49-3.34L24,54H72Zm13.64-23.7a2,2,0,0,1-1.47.65h-21l.34-.31h0a4.16,4.16,0,0,0,.5-.61l.07-.09a4.32,4.32,0,0,0,.36-.67l.06-.13a5.65,5.65,0,0,0,.23-.73.5.5,0,0,1,0-.12A4.58,4.58,0,0,0,56,49.5V49H75.13a2.11,2.11,0,0,1,2.17,1.82A2,2,0,0,1,76.78,52.35Z"/>
<path d="M48.5,59A2.5,2.5,0,0,0,46,61.5v10a2.5,2.5,0,0,0,5,0v-10A2.5,2.5,0,0,0,48.5,59ZM50,71.5a1.5,1.5,0,0,1-3,0v-10a1.5,1.5,0,0,1,3,0Z"/>
<path d="M38.5,59A2.5,2.5,0,0,0,36,61.5v10a2.5,2.5,0,0,0,5,0v-10A2.5,2.5,0,0,0,38.5,59ZM40,71.5a1.5,1.5,0,0,1-3,0v-10a1.5,1.5,0,0,1,3,0Z"/>
<path d="M58.5,74A2.5,2.5,0,0,0,61,71.5v-10a2.5,2.5,0,0,0-5,0v10A2.5,2.5,0,0,0,58.5,74ZM57,61.5a1.5,1.5,0,0,1,3,0v10a1.5,1.5,0,0,1-3,0Z"/>
</g>
</svg>