<?xml version="1.0" ?>
<!-- Uploaded to: SVG Repo, www.svgrepo.com, Generator: SVG Repo Mixer Tools -->
<svg fill="#000000" width="800px" height="800px" viewBox="0 0 96 96" xmlns="http://www.w3.org/2000/svg">
<title/>
<g data-name="Price Tag" id="Price_Tag">
<path d="M41,47.18a4.51,4.51,0,0,0-6.36,0l-9.19,9.2a4.49,4.49,0,0,0,0,6.36l7.78,7.78a4.49,4.49,0,0,0,6.36,0l9.19-9.19a4.5,4.5,0,0,0,0-6.37Zm7.08,13.44-9.2,9.19a3.49,3.49,0,0,1-5,0L26.2,62a3.49,3.49,0,0,1,0-5l9.19-9.19a3.51,3.51,0,0,1,5,0l7.78,7.78A3.51,3.51,0,0,1,48.12,60.62Z"/>
<path d="M79.12,16.89a.51.51,0,0,0-.71,0L70,25.26l-.7-.7a4.54,4.54,0,0,0-3.82-1.28L49,25.64a4.53,4.53,0,0,0-2.54,1.27L18.42,55a6.49,6.49,0,0,0,0,9.19L31.85,77.59a6.51,6.51,0,0,0,9.19,0L69.09,49.54A4.52,4.52,0,0,0,70.37,47l2.35-16.5a4.5,4.5,0,0,0-1.27-3.82L70.74,26l8.38-8.37A.51.51,0,0,0,79.12,16.89Zm-8.38,10.5a3.47,3.47,0,0,1,1,3l-2.35,16.5a3.53,3.53,0,0,1-1,2l-28,28.05a5.5,5.5,0,0,1-7.78,0L19.12,63.45a5.52,5.52,0,0,1,0-7.78l28.05-28a3.6,3.6,0,0,1,2-1l16.5-2.36.49,0a3.51,3.51,0,0,1,2.48,1l.71.71-7.89,7.88a4,4,0,1,0,.71.71L70,26.68ZM61.12,39.12a3,3,0,0,1-4.24-4.24,3,3,0,0,1,4.24,0A3,3,0,0,1,61.12,39.12Z"/>
<path d="M33.21,54.84a.49.49,0,1,0-.7.7l7.78,7.78a.48.48,0,0,0,.7,0,.5.5,0,0,0,0-.71Z"/>
<path d="M29,59.08a.48.48,0,0,0-.7,0,.5.5,0,0,0,0,.71L36,67.56a.51.51,0,0,0,.36.15.5.5,0,0,0,.35-.15.48.48,0,0,0,0-.7Z"/>
<path d="M31.09,57a.48.48,0,0,0-.7,0,.5.5,0,0,0,0,.71l7.77,7.77a.51.51,0,0,0,.36.15.5.5,0,0,0,.35-.85Z"/>
<path d="M37.46,50.59a.5.5,0,0,0-.71.71l7.78,7.78a.49.49,0,0,0,.35.15.51.51,0,0,0,.36-.15.51.51,0,0,0,0-.71Z"/>
<path d="M35.34,52.72a.5.5,0,0,0-.71,0,.48.48,0,0,0,0,.7l7.78,7.78a.48.48,0,0,0,.7,0,.5.5,0,0,0,0-.71Z"/>
</g>
</svg>